<svg xmlns="http://www.w3.org/2000/svg" width="32" height="32" viewBox="0 0 24 24"><path d="M6.645 21.75h9.767l-2.862-8.011h4.656l-.001-.001c3.2 0 5.794-2.573 5.794-5.745 0-3.171-2.595-5.744-5.794-5.744-2.912 0-5.317 2.127-5.728 4.897h-.187c-.413-2.77-2.821-4.896-5.732-4.896-3.2 0-5.793 2.573-5.793 5.744 0 3.143 2.546 5.697 5.706 5.744v.002h.174v1.957L0 13.911v7.639l6.645-1.981zM18.322 6.372a1.63 1.63 0 0 1 1.639 1.621c0 .897-.733 1.625-1.639 1.625a1.63 1.63 0 0 1-1.634-1.625c0-.896.73-1.621 1.634-1.621zM6.557 9.615a1.628 1.628 0 0 1-1.636-1.623c0-.896.733-1.622 1.636-1.622s1.636.726 1.636 1.622c0 .899-.733 1.623-1.636 1.623z"/></svg>